# xmcd
#
# Track frame offsets: 
#        150
#        14047
#        28635
#        42400
#        59327
#        72277
#        85537
#        100022
#        113345
#        126045
#        141067
#        152835
#        167242
#        178752
#        192290
#        206630
#        220725
#        243840
#
# Disc length: 3443 seconds
#
# Revision: 5
# Processed by: cddbd v1.5.2PL0 Copyright (c) Steve Scherf et al.
# Submitted via: ExactAudioCopy v1.0b3
#
DISCID=f40d7112
DTITLE=Various Artist - Harmonica blues
DYEAR=1998
DGENRE=Blues
TTITLE0=Big Joe Williams - Sonny Boy Williamson I. - Good morning, litt
TTITLE0=le schoolgirl
TTITLE1=Willie Hatcher - Robert Nighthawk - Speckled Red - Sonny Boy Will
TTITLE1=iamson I. - Suzie Q
TTITLE2=Son Bonds - Hammie Nixon - Trouble trouble blues
TTITLE3=Jazz Gillum - I want you by my side
TTITLE4=Yank Rachell - Sonny Boy Williamson I. - It seems like a dream
TTITLE5=Blind Boy Fuller - Sonny Terry - Three ball blues
TTITLE6=Big Joe Williams - Sonny Boy Williamson I. - Highway 49
TTITLE7=Robert Hill - I'm going to write and tell my mother
TTITLE8=Sonny Terry - Sweet woman
TTITLE9=Big Joe Williams - Sonny Boy Williamson I. - Baby, please don't
TTITLE9=go
TTITLE10=Brownie McGhee - Prison woman blues
TTITLE11=George Clarke - Prisoner's blues
TTITLE12=Rhythm Willie - Peetie Wheatstraw - You can't stop me from dri
TTITLE12=nking
TTITLE13=Frank Edwards - Three women blues
TTITLE14=Robert Nighthawk - Joe McCoy  - Three ball blues
TTITLE15=DeFord Bailey - Muscle shoals blues
TTITLE16=Leroy Williams - Uncle Sam done called
TTITLE17=Alfred Lewis - Friday moan blues
EXTD=YEAR: 1998
EXTT0=
EXTT1=
EXTT2=
EXTT3=
EXTT4=
EXTT5=
EXTT6=
EXTT7=
EXTT8=
EXTT9=
EXTT10=
EXTT11=
EXTT12=
EXTT13=
EXTT14=
EXTT15=
EXTT16=
EXTT17=
PLAYORDER=
